<mxfile host="app.diagrams.net" agent="Mozilla/5.0 (Windows NT 10.0; Win64; x64) AppleWebKit/537.36 (KHTML, like Gecko) Chrome/127.0.0.0 Safari/537.36" version="24.7.7">
  <diagram name="Página-1" id="cWuWGfy-koodOxype_1I">
    <mxGraphModel dx="1050" dy="522" grid="1" gridSize="10" guides="1" tooltips="1" connect="1" arrows="1" fold="1" page="1" pageScale="1" pageWidth="827" pageHeight="1169" math="0" shadow="0">
      <root>
        <mxCell id="0" />
        <mxCell id="1" parent="0" />
        <mxCell id="lqVWHHf_dA2eV_U2__zk-1" value="Cliente" style="shape=umlActor;verticalLabelPosition=bottom;verticalAlign=top;html=1;outlineConnect=0;" vertex="1" parent="1">
          <mxGeometry x="64" y="71" width="30" height="60" as="geometry" />
        </mxCell>
        <mxCell id="lqVWHHf_dA2eV_U2__zk-2" value="Sistema" style="rounded=1;whiteSpace=wrap;html=1;fillColor=#d0cee2;strokeColor=#56517e;" vertex="1" parent="1">
          <mxGeometry x="217.63" y="66" width="110" height="50" as="geometry" />
        </mxCell>
        <mxCell id="lqVWHHf_dA2eV_U2__zk-3" value="" style="rounded=1;whiteSpace=wrap;html=1;rotation=90;fillColor=#000000;arcSize=50;" vertex="1" parent="1">
          <mxGeometry x="-5.63" y="278.13" width="173.25" height="20" as="geometry" />
        </mxCell>
        <mxCell id="lqVWHHf_dA2eV_U2__zk-4" value="" style="endArrow=none;dashed=1;html=1;dashPattern=1 3;strokeWidth=2;rounded=0;" edge="1" parent="1">
          <mxGeometry width="50" height="50" relative="1" as="geometry">
            <mxPoint x="81" y="213" as="sourcePoint" />
            <mxPoint x="81" y="163" as="targetPoint" />
          </mxGeometry>
        </mxCell>
        <mxCell id="lqVWHHf_dA2eV_U2__zk-5" value="" style="rounded=1;whiteSpace=wrap;html=1;rotation=90;fillColor=#000000;arcSize=50;" vertex="1" parent="1">
          <mxGeometry x="186" y="283.13" width="173.25" height="20" as="geometry" />
        </mxCell>
        <mxCell id="lqVWHHf_dA2eV_U2__zk-6" value="" style="endArrow=none;dashed=1;html=1;dashPattern=1 3;strokeWidth=2;rounded=0;" edge="1" parent="1">
          <mxGeometry width="50" height="50" relative="1" as="geometry">
            <mxPoint x="272.5" y="210" as="sourcePoint" />
            <mxPoint x="273" y="140" as="targetPoint" />
          </mxGeometry>
        </mxCell>
        <mxCell id="lqVWHHf_dA2eV_U2__zk-7" value="" style="endArrow=classic;html=1;rounded=0;" edge="1" parent="1">
          <mxGeometry width="50" height="50" relative="1" as="geometry">
            <mxPoint x="100" y="219" as="sourcePoint" />
            <mxPoint x="250" y="220" as="targetPoint" />
          </mxGeometry>
        </mxCell>
        <mxCell id="lqVWHHf_dA2eV_U2__zk-8" value="1.Conclui tarefa" style="edgeLabel;html=1;align=center;verticalAlign=middle;resizable=0;points=[];" vertex="1" connectable="0" parent="lqVWHHf_dA2eV_U2__zk-7">
          <mxGeometry x="-0.0275" relative="1" as="geometry">
            <mxPoint x="-3" as="offset" />
          </mxGeometry>
        </mxCell>
        <mxCell id="lqVWHHf_dA2eV_U2__zk-9" value="Controlador de progresso" style="rounded=1;whiteSpace=wrap;html=1;fillColor=#d0cee2;strokeColor=#56517e;" vertex="1" parent="1">
          <mxGeometry x="407.37" y="66" width="110" height="50" as="geometry" />
        </mxCell>
        <mxCell id="lqVWHHf_dA2eV_U2__zk-10" value="" style="rounded=1;whiteSpace=wrap;html=1;rotation=90;fillColor=#000000;arcSize=50;" vertex="1" parent="1">
          <mxGeometry x="375.75" y="278.13" width="173.25" height="20" as="geometry" />
        </mxCell>
        <mxCell id="lqVWHHf_dA2eV_U2__zk-11" value="" style="endArrow=none;dashed=1;html=1;dashPattern=1 3;strokeWidth=2;rounded=0;" edge="1" parent="1">
          <mxGeometry width="50" height="50" relative="1" as="geometry">
            <mxPoint x="460.88" y="211" as="sourcePoint" />
            <mxPoint x="461.38" y="141" as="targetPoint" />
          </mxGeometry>
        </mxCell>
        <mxCell id="lqVWHHf_dA2eV_U2__zk-16" value="" style="endArrow=none;dashed=1;html=1;rounded=0;" edge="1" parent="1">
          <mxGeometry width="50" height="50" relative="1" as="geometry">
            <mxPoint x="80.58" y="480" as="sourcePoint" />
            <mxPoint x="80.58" y="410" as="targetPoint" />
          </mxGeometry>
        </mxCell>
        <mxCell id="lqVWHHf_dA2eV_U2__zk-17" value="" style="endArrow=none;html=1;rounded=0;strokeWidth=4;" edge="1" parent="1">
          <mxGeometry width="50" height="50" relative="1" as="geometry">
            <mxPoint x="53" y="539" as="sourcePoint" />
            <mxPoint x="103" y="489" as="targetPoint" />
          </mxGeometry>
        </mxCell>
        <mxCell id="lqVWHHf_dA2eV_U2__zk-18" value="" style="endArrow=none;html=1;rounded=0;strokeWidth=4;" edge="1" parent="1">
          <mxGeometry width="50" height="50" relative="1" as="geometry">
            <mxPoint x="57" y="486" as="sourcePoint" />
            <mxPoint x="101" y="542" as="targetPoint" />
          </mxGeometry>
        </mxCell>
        <mxCell id="lqVWHHf_dA2eV_U2__zk-21" value="" style="rounded=1;whiteSpace=wrap;html=1;rotation=90;fillColor=#000000;arcSize=50;" vertex="1" parent="1">
          <mxGeometry x="660" y="279.13" width="173.25" height="20" as="geometry" />
        </mxCell>
        <mxCell id="lqVWHHf_dA2eV_U2__zk-22" value="Banco de dados&lt;div&gt;local&lt;/div&gt;" style="rounded=1;whiteSpace=wrap;html=1;fillColor=#d0cee2;strokeColor=#56517e;" vertex="1" parent="1">
          <mxGeometry x="691.63" y="66" width="110" height="50" as="geometry" />
        </mxCell>
        <mxCell id="lqVWHHf_dA2eV_U2__zk-23" value="" style="endArrow=none;dashed=1;html=1;dashPattern=1 3;strokeWidth=2;rounded=0;" edge="1" parent="1">
          <mxGeometry width="50" height="50" relative="1" as="geometry">
            <mxPoint x="746.75" y="214" as="sourcePoint" />
            <mxPoint x="747.25" y="144" as="targetPoint" />
          </mxGeometry>
        </mxCell>
        <mxCell id="lqVWHHf_dA2eV_U2__zk-24" value="" style="endArrow=classic;html=1;rounded=0;" edge="1" parent="1">
          <mxGeometry width="50" height="50" relative="1" as="geometry">
            <mxPoint x="477" y="235" as="sourcePoint" />
            <mxPoint x="727" y="235" as="targetPoint" />
          </mxGeometry>
        </mxCell>
        <mxCell id="lqVWHHf_dA2eV_U2__zk-25" value="3.Atualiza progesso" style="edgeLabel;html=1;align=center;verticalAlign=middle;resizable=0;points=[];" vertex="1" connectable="0" parent="lqVWHHf_dA2eV_U2__zk-24">
          <mxGeometry x="-0.0275" relative="1" as="geometry">
            <mxPoint x="-48" as="offset" />
          </mxGeometry>
        </mxCell>
        <mxCell id="lqVWHHf_dA2eV_U2__zk-26" value="" style="endArrow=classic;html=1;rounded=0;dashed=1;" edge="1" parent="1">
          <mxGeometry width="50" height="50" relative="1" as="geometry">
            <mxPoint x="728" y="263" as="sourcePoint" />
            <mxPoint x="476" y="263" as="targetPoint" />
          </mxGeometry>
        </mxCell>
        <mxCell id="lqVWHHf_dA2eV_U2__zk-27" value="4.Confirma atualização" style="edgeLabel;html=1;align=center;verticalAlign=middle;resizable=0;points=[];" vertex="1" connectable="0" parent="lqVWHHf_dA2eV_U2__zk-26">
          <mxGeometry x="-0.0275" relative="1" as="geometry">
            <mxPoint x="-48" as="offset" />
          </mxGeometry>
        </mxCell>
        <mxCell id="lqVWHHf_dA2eV_U2__zk-28" value=",,,,,,,,,,,,,,,,,,,,,,,,,,,," style="endArrow=classic;html=1;rounded=0;dashed=1;" edge="1" parent="1">
          <mxGeometry width="50" height="50" relative="1" as="geometry">
            <mxPoint x="730" y="297" as="sourcePoint" />
            <mxPoint x="477" y="297" as="targetPoint" />
          </mxGeometry>
        </mxCell>
        <mxCell id="lqVWHHf_dA2eV_U2__zk-29" value="5.Verifica Progresso e Determina animação&amp;nbsp;" style="edgeLabel;html=1;align=center;verticalAlign=middle;resizable=0;points=[];" vertex="1" connectable="0" parent="lqVWHHf_dA2eV_U2__zk-28">
          <mxGeometry x="-0.0275" relative="1" as="geometry">
            <mxPoint x="3" as="offset" />
          </mxGeometry>
        </mxCell>
        <mxCell id="lqVWHHf_dA2eV_U2__zk-40" value="" style="endArrow=classic;html=1;rounded=0;dashed=1;" edge="1" parent="1">
          <mxGeometry width="50" height="50" relative="1" as="geometry">
            <mxPoint x="251" y="350" as="sourcePoint" />
            <mxPoint x="101" y="350" as="targetPoint" />
          </mxGeometry>
        </mxCell>
        <mxCell id="lqVWHHf_dA2eV_U2__zk-41" value="7.Fim da função" style="edgeLabel;html=1;align=center;verticalAlign=middle;resizable=0;points=[];" vertex="1" connectable="0" parent="lqVWHHf_dA2eV_U2__zk-40">
          <mxGeometry x="0.1796" relative="1" as="geometry">
            <mxPoint x="8" y="-1" as="offset" />
          </mxGeometry>
        </mxCell>
        <mxCell id="lqVWHHf_dA2eV_U2__zk-42" value="" style="endArrow=classic;html=1;rounded=0;" edge="1" parent="1">
          <mxGeometry width="50" height="50" relative="1" as="geometry">
            <mxPoint x="292" y="220" as="sourcePoint" />
            <mxPoint x="442" y="221" as="targetPoint" />
          </mxGeometry>
        </mxCell>
        <mxCell id="lqVWHHf_dA2eV_U2__zk-43" value="2.Envia conclusão" style="edgeLabel;html=1;align=center;verticalAlign=middle;resizable=0;points=[];" vertex="1" connectable="0" parent="lqVWHHf_dA2eV_U2__zk-42">
          <mxGeometry x="-0.0275" relative="1" as="geometry">
            <mxPoint x="-9" as="offset" />
          </mxGeometry>
        </mxCell>
        <mxCell id="lqVWHHf_dA2eV_U2__zk-44" value="" style="endArrow=classic;html=1;rounded=0;" edge="1" parent="1">
          <mxGeometry width="50" height="50" relative="1" as="geometry">
            <mxPoint x="441" y="296" as="sourcePoint" />
            <mxPoint x="291" y="295" as="targetPoint" />
          </mxGeometry>
        </mxCell>
        <mxCell id="lqVWHHf_dA2eV_U2__zk-45" value="6.Atualiza Visualização-" style="edgeLabel;html=1;align=center;verticalAlign=middle;resizable=0;points=[];" vertex="1" connectable="0" parent="lqVWHHf_dA2eV_U2__zk-44">
          <mxGeometry x="-0.0275" relative="1" as="geometry">
            <mxPoint x="2" as="offset" />
          </mxGeometry>
        </mxCell>
      </root>
    </mxGraphModel>
  </diagram>
</mxfile>
